<svg width="224" height="152" viewBox="0 0 224 152" fill="none" xmlns="http://www.w3.org/2000/svg">
<g filter="url(#filter0_d_9_434)">
<path d="M45.7158 98.683C43.6979 98.683 41.5844 98.6036 39.8995 98.0255C38.2145 97.4474 33.7599 96.092 29.5861 93.3778C25.4123 90.6637 24.2006 79.2308 24.2006 79.2308C24.2006 79.2308 23.2069 74.9464 23.662 73.7896C24.1172 72.6328 24.9611 72.0837 25.4123 71.7038C27.242 70.1634 29.4417 69.3456 31.498 68.099C33.0608 67.1517 35.8003 66.9293 37.6779 66.8634C39.3236 66.8057 41.0162 66.6857 42.4576 67.4642C44.5787 68.6099 45.69 71.4462 45.9447 73.4835C46.11 74.8055 46.0058 77.2612 44.6253 78.1652C43.8198 78.6926 42.495 79.7674 41.4747 79.8996C40.0788 80.0804 38.4594 79.938 37.0451 79.9109C35.7796 79.8867 33.7877 77.4249 33.1271 76.5442C31.2201 73.9087 30.0224 72.9273 29.9093 71.2051C29.3935 68.2136 28.8095 65.8179 29.5861 62.8392C29.9779 61.3368 30.1688 59.591 30.9325 58.1916C31.6435 56.8887 32.279 55.2208 32.4001 53.7933C32.521 52.3683 34.0759 50.8379 34.9448 49.7124C36.0624 48.2647 37.3861 46.2632 38.9839 45.1101C39.8572 44.4798 40.5881 43.8937 41.7036 43.4324C42.9232 42.928 44.2774 42.6776 45.5004 42.1628C46.7555 41.6344 47.6866 41.0386 49.0683 40.7231C53.6463 39.6779 57.1399 39.2298 61.8994 40.009C64.0266 40.3572 64.9494 41.3485 66.0732 42.8203C67.7272 44.9865 67.5918 49.25 65.3462 51.1407C63.3133 52.8523 58.3771 52.0067 56.5004 50.4266C55.5034 49.5871 54.3299 47.3621 54.1981 46.289C54.1191 45.646 53.6306 44.9908 53.4172 44.3619C53.1342 43.5279 52.8402 42.512 52.7574 41.6413C52.3518 37.3727 52.4962 33.7605 56.1907 30.5776C58.4534 28.6283 60.4471 26.9196 63.542 25.8506C68.8201 24.0275 74.8496 24.0029 80.4526 24.0029C84.443 24.0029 88.5334 23.9074 92.4085 24.819C95.184 25.472 98.1397 26.4621 100.972 26.8595C101.541 26.9393 103.384 27.7066 103.637 28.1858C103.889 28.6628 105.143 29.6128 105.67 29.9088C106.582 30.4206 106.955 31.6256 107.515 32.3687C108.98 34.3129 108.969 36.7611 108.969 38.9888C108.969 41.5498 106.666 41.7547 104.001 41.7547C102.02 41.7547 99.9826 42.0233 98.2519 41.0519C94.823 39.1273 94.0042 34.0395 96.1246 31.0991C96.6765 30.3337 96.865 29.5008 97.6325 28.8546C98.8388 27.8389 99.9968 27.3706 101.618 26.9048C105.673 25.7395 109.951 24.819 114.301 24.819C116.835 24.819 119.507 24.6303 121.989 25.1251C123.89 25.5042 125.712 26.0987 127.63 26.4514C131 27.0711 133.588 28.9599 136.718 30.0335C139.937 31.1377 141.632 34.4586 143.369 36.7443C144.652 38.432 145.611 40.5007 146.237 42.4122C146.635 43.6265 146.291 45.3108 146.291 46.5611C146.291 47.6465 145.826 48.137 144.81 48.8055C143.183 49.8755 140.014 51.9302 137.755 50.7326C136.63 50.1364 135.509 49.6845 134.523 48.8962C133.898 48.3959 133.559 47.6829 132.962 47.1505C131.477 45.8271 131.508 43.6937 131.508 41.9701C131.508 39.4673 131.986 37.201 133.985 35.3386C136.972 32.5562 141.943 32.9808 146.022 32.9808C148.07 32.9808 150.153 34.004 152.08 34.4998C154.398 35.0961 156.708 35.8723 158.96 36.6309C160.589 37.1792 161.642 38.0871 163.013 38.9888C164.598 40.0313 166.254 40.9898 167.86 42.0041C170.983 43.976 173.725 46.835 176.235 49.327C178.478 51.5546 181.149 53.7671 182.266 56.5365C183.265 59.0113 184.24 61.2532 184.636 63.8368C184.982 66.0916 185.317 69.1009 183.37 70.9217C180.578 73.5343 175.699 73.5856 171.899 73.5856C168.555 73.5856 166.746 70.7881 165.181 68.5638C163.76 66.5446 164.467 63.6063 164.467 61.3429C164.467 59.1264 169.715 57.7031 171.872 57.6701C173.786 57.6408 176.624 57.2674 178.308 57.9762C179.521 58.487 180.945 58.6343 182.011 59.3932C183.085 60.1584 184.292 60.7634 185.363 61.547C187.319 62.9776 189.512 64.4844 190.776 66.444C192.35 68.8865 193.775 71.5561 194.869 74.1864C196.104 77.1589 196.457 80.6614 196.457 83.7878C196.457 86.5604 195.723 89.2051 194.141 91.6775C193.023 93.4258 192.184 95.2973 190.776 96.9146C190.325 97.4314 189.926 98.067 189.268 98.3996C187.723 99.1799 186.606 100.389 185.04 101.143C183.617 101.828 182.779 101.904 181.189 102.106C180.217 102.23 178.761 102.315 177.796 102.106C176.522 101.83 175.305 100.701 174.161 100.157C170.863 98.5872 169.518 95.7708 166.998 93.4799C164.78 91.4631 163.13 89.1915 160.805 87.2338C158.221 85.0587 155.634 83.0487 152.727 81.1805C149.545 79.1362 146.171 76.1134 142.252 75.1159C140.376 74.6385 138.41 74.3617 136.61 73.6989C135.06 73.1278 132.817 73.2645 131.131 72.9281C127.405 72.1852 123.572 72.4389 119.767 72.2026C116.477 71.9983 113.231 71.9532 109.938 71.9532C106.579 71.9532 103.373 72.8794 100.298 73.9936C98.3385 74.7038 96.8781 75.2124 95.3437 76.4875C94.5325 77.1616 93.2164 77.6827 93.2164 78.698C93.2164 81.9315 92.3667 85.9831 94.3743 88.8435C95.7324 90.7786 98.1668 91.8749 100.689 92.437C104.052 93.1864 106.572 90.0352 107.946 87.846C108.64 86.7393 109.48 85.7102 110.073 84.5359C110.729 83.2381 111.146 81.9178 111.877 80.6364C112.787 79.0426 113.586 77.2818 114.301 75.626C115.158 73.6422 116.511 71.8754 117.438 69.9241C119.149 66.3229 121.667 63.1143 124.372 60.0053C125.223 59.0268 125.666 57.7507 126.714 56.8993C127.245 56.4683 128.775 55.1547 129.448 55.0289C131.293 54.6837 133.719 54.5284 135.399 55.3236C136.7 55.9397 138.853 57.7424 139.317 58.9851C140.245 61.4709 142.656 63.1734 142.656 65.9906C142.656 67.8645 139.529 67.2103 138.536 66.0813C137.461 64.8597 134.848 64.6251 133.339 63.9048C131.383 62.9719 129.297 62.3475 127.388 61.3429C125.635 60.4205 123.527 60.2411 121.679 59.5065C119.385 58.5944 116.976 58.335 114.57 57.6815C112.138 57.0208 109.413 56.5809 106.896 56.2418C104.68 55.9433 102.297 55.3269 100.137 54.8135C97.0102 54.0705 94.3386 52.569 91.0083 52.569C89.1341 52.569 87.4173 53.0129 85.5689 53.1812C82.1469 53.4926 78.5834 53.7582 75.2017 54.3034C73.2849 54.6124 72.3949 54.9136 70.9067 55.9358C69.3413 57.011 67.1869 57.7828 65.8847 59.0984C64.419 60.5793 61.822 61.7603 60.9839 63.7008C59.9395 66.1187 58.5604 68.3589 58.5604 70.9783C58.5604 73.8036 59.2039 76.1694 60.7415 78.6867C62.0266 80.7905 64.8525 81.3392 67.3927 81.3392C70.6404 81.3392 72.9495 80.8926 75.2825 78.9814C76.9672 77.6013 78.6754 75.2445 78.6754 73.1888C78.6754 71.6083 79.1798 69.4744 77.9483 68.1784C76.3988 66.5477 73.1699 66.0971 71.0279 65.2198C68.5094 64.1882 64.955 67.3976 63.0573 68.2691C62.2565 68.6368 61.5491 69.4223 61.0781 70.0601C59.9717 71.5586 58.7856 72.8422 58.1834 74.5604C56.731 78.7046 55.0857 82.7938 55.4233 87.1998C55.5903 89.3799 56.2326 91.5931 57.7795 93.3778C58.4104 94.1058 58.8323 95.0158 59.6375 95.6223C60.5349 96.2984 61.7139 96.8055 62.6669 97.4474C63.5136 98.0177 64.5427 98.233 65.4673 98.6943C66.919 99.4186 68.4726 100.06 70.072 100.519C73.5161 101.51 76.8816 100.927 80.3718 100.927C85.418 100.927 90.5777 100.921 95.4648 99.8166C98.3088 99.1741 100.959 99.2951 103.934 99.2951C106.376 99.2951 108.739 98.9233 111.15 98.887C114.57 98.8356 117.111 100.162 120.023 101.415C121.059 101.861 122.23 101.951 123.281 102.367C124.311 102.775 125.329 103.21 126.391 103.557C129.342 104.524 132.296 105.399 135.331 106.187C141.725 107.849 148.59 107.865 155.204 107.865C156.948 107.865 158.976 107.704 159.391 106.131C159.986 103.875 160.347 101.842 160.347 99.4765C160.347 97.398 160.217 95.3407 158.61 93.6499C156.731 91.6716 155.196 89.9732 152.538 88.7302C150.961 87.9924 149.059 87.5359 147.287 87.3019C145.716 87.0943 144.07 87.1947 142.521 86.8938C142.012 86.7949 141.77 86.6497 141.175 86.6444C138.402 86.6195 135.627 86.6444 132.854 86.6444C130.927 86.6444 129.504 86.5769 127.751 87.1545C125.573 87.8721 122.945 89.1607 121.275 90.5666C119.893 91.7304 117.845 92.4577 116.59 93.7066C113.974 96.3097 111.5 100.088 112.901 103.625C114.315 107.197 120.6 109.57 124.372 111.158" stroke="#F0ABCC" stroke-width="31" stroke-linecap="round" shape-rendering="crispEdges"/>
</g>
<g filter="url(#filter1_d_9_434)">
<path d="M45.7158 98.683C43.6979 98.683 41.5844 98.6036 39.8995 98.0255C38.2145 97.4474 33.7599 96.092 29.5861 93.3778C25.4123 90.6637 24.2006 79.2308 24.2006 79.2308C24.2006 79.2308 23.2069 74.9464 23.662 73.7896C24.1172 72.6328 24.9611 72.0837 25.4123 71.7038C27.242 70.1634 29.4417 69.3456 31.498 68.099C33.0608 67.1517 35.8003 66.9293 37.6779 66.8634C39.3236 66.8057 41.0162 66.6857 42.4576 67.4642C44.5787 68.6099 45.69 71.4462 45.9447 73.4835C46.11 74.8055 46.0058 77.2612 44.6253 78.1652C43.8198 78.6926 42.495 79.7674 41.4747 79.8996C40.0788 80.0804 38.4594 79.938 37.0451 79.9109C35.7796 79.8867 33.7877 77.4249 33.1271 76.5442C31.2201 73.9087 30.0224 72.9273 29.9093 71.2051C29.3935 68.2136 28.8095 65.8179 29.5861 62.8392C29.9779 61.3368 30.1688 59.591 30.9325 58.1916C31.6435 56.8887 32.279 55.2208 32.4001 53.7933C32.521 52.3683 34.0759 50.8379 34.9448 49.7124C36.0624 48.2647 37.3861 46.2632 38.9839 45.1101C39.8572 44.4798 40.5881 43.8937 41.7036 43.4324C42.9232 42.928 44.2774 42.6776 45.5004 42.1628C46.7555 41.6344 47.6866 41.0386 49.0683 40.7231C53.6463 39.6779 57.1399 39.2298 61.8994 40.009C64.0266 40.3572 64.9494 41.3485 66.0732 42.8203C67.7272 44.9865 67.5918 49.25 65.3462 51.1407C63.3133 52.8523 58.3771 52.0067 56.5004 50.4266C55.5034 49.5871 54.3299 47.3621 54.1981 46.289C54.1191 45.646 53.6306 44.9908 53.4172 44.3619C53.1342 43.5279 52.8402 42.512 52.7574 41.6413C52.3518 37.3727 52.4962 33.7605 56.1907 30.5776C58.4534 28.6283 60.4471 26.9196 63.542 25.8506C68.8201 24.0275 74.8496 24.0029 80.4526 24.0029C84.443 24.0029 88.5334 23.9074 92.4085 24.819C95.184 25.472 98.1397 26.4621 100.972 26.8595C101.541 26.9393 103.384 27.7066 103.637 28.1858C103.889 28.6628 105.143 29.6128 105.67 29.9088C106.582 30.4206 106.955 31.6256 107.515 32.3687C108.98 34.3129 108.969 36.7611 108.969 38.9888C108.969 41.5498 106.666 41.7547 104.001 41.7547C102.02 41.7547 99.9826 42.0233 98.2519 41.0519C94.823 39.1273 94.0042 34.0395 96.1246 31.0991C96.6765 30.3337 96.865 29.5008 97.6325 28.8546C98.8388 27.8389 99.9968 27.3706 101.618 26.9048C105.673 25.7395 109.951 24.819 114.301 24.819C116.835 24.819 119.507 24.6303 121.989 25.1251C123.89 25.5042 125.712 26.0987 127.63 26.4514C131 27.0711 133.588 28.9599 136.718 30.0335C139.937 31.1377 141.632 34.4586 143.369 36.7443C144.652 38.432 145.611 40.5007 146.237 42.4122C146.635 43.6265 146.291 45.3108 146.291 46.5611C146.291 47.6465 145.826 48.137 144.81 48.8055C143.183 49.8755 140.014 51.9302 137.755 50.7326C136.63 50.1364 135.509 49.6845 134.523 48.8962C133.898 48.3959 133.559 47.6829 132.962 47.1505C131.477 45.8271 131.508 43.6937 131.508 41.9701C131.508 39.4673 131.986 37.201 133.985 35.3386C136.972 32.5562 141.943 32.9808 146.022 32.9808C148.07 32.9808 150.153 34.004 152.08 34.4998C154.398 35.0961 156.708 35.8723 158.96 36.6309C160.589 37.1792 161.642 38.0871 163.013 38.9888C164.598 40.0313 166.254 40.9898 167.86 42.0041C170.983 43.976 173.725 46.835 176.235 49.327C178.478 51.5546 181.149 53.7671 182.266 56.5365C183.265 59.0113 184.24 61.2532 184.636 63.8368C184.982 66.0916 185.317 69.1009 183.37 70.9217C180.578 73.5343 175.699 73.5856 171.899 73.5856C168.555 73.5856 166.746 70.7881 165.181 68.5638C163.76 66.5446 164.467 63.6063 164.467 61.3429C164.467 59.1264 169.715 57.7031 171.872 57.6701C173.786 57.6408 176.624 57.2674 178.308 57.9762C179.521 58.487 180.945 58.6343 182.011 59.3932C183.085 60.1584 184.292 60.7634 185.363 61.547C187.319 62.9776 189.512 64.4844 190.776 66.444C192.35 68.8865 193.775 71.5561 194.869 74.1864C196.104 77.1589 196.457 80.6614 196.457 83.7878C196.457 86.5604 195.723 89.2051 194.141 91.6775C193.023 93.4258 192.184 95.2973 190.776 96.9146C190.325 97.4314 189.926 98.067 189.268 98.3996C187.723 99.1799 186.606 100.389 185.04 101.143C183.617 101.828 182.779 101.904 181.189 102.106C180.217 102.23 178.761 102.315 177.796 102.106C176.522 101.83 175.305 100.701 174.161 100.157C170.863 98.5872 169.518 95.7708 166.998 93.4799C164.78 91.4631 163.13 89.1915 160.805 87.2338C158.221 85.0587 155.634 83.0487 152.727 81.1805C149.545 79.1362 146.171 76.1134 142.252 75.1159C140.376 74.6385 138.41 74.3617 136.61 73.6989C135.06 73.1278 132.817 73.2645 131.131 72.9281C127.405 72.1852 123.572 72.4389 119.767 72.2026C116.477 71.9983 113.231 71.9532 109.938 71.9532C106.579 71.9532 103.373 72.8794 100.298 73.9936C98.3385 74.7038 96.8781 75.2124 95.3437 76.4875C94.5325 77.1616 93.2164 77.6827 93.2164 78.698C93.2164 81.9315 92.3667 85.9831 94.3743 88.8435C95.7324 90.7786 98.1668 91.8749 100.689 92.437C104.052 93.1864 106.572 90.0352 107.946 87.846C108.64 86.7393 109.48 85.7102 110.073 84.5359C110.729 83.2381 111.146 81.9178 111.877 80.6364C112.787 79.0426 113.586 77.2818 114.301 75.626C115.158 73.6422 116.511 71.8754 117.438 69.9241C119.149 66.3229 121.667 63.1143 124.372 60.0053C125.223 59.0268 125.666 57.7507 126.714 56.8993C127.245 56.4683 128.775 55.1547 129.448 55.0289C131.293 54.6837 133.719 54.5284 135.399 55.3236C136.7 55.9397 138.853 57.7424 139.317 58.9851C140.245 61.4709 142.656 63.1734 142.656 65.9906C142.656 67.8645 139.529 67.2103 138.536 66.0813C137.461 64.8597 134.848 64.6251 133.339 63.9048C131.383 62.9719 129.297 62.3475 127.388 61.3429C125.635 60.4205 123.527 60.2411 121.679 59.5065C119.385 58.5944 116.976 58.335 114.57 57.6815C112.138 57.0208 109.413 56.5809 106.896 56.2418C104.68 55.9433 102.297 55.3269 100.137 54.8135C97.0102 54.0705 94.3386 52.569 91.0083 52.569C89.1341 52.569 87.4173 53.0129 85.5689 53.1812C82.1469 53.4926 78.5834 53.7582 75.2017 54.3034C73.2849 54.6124 72.3949 54.9136 70.9067 55.9358C69.3413 57.011 67.1869 57.7828 65.8847 59.0984C64.419 60.5793 61.822 61.7603 60.9839 63.7008C59.9395 66.1187 58.5604 68.3589 58.5604 70.9783C58.5604 73.8036 59.2039 76.1694 60.7415 78.6867C62.0266 80.7905 64.8525 81.3392 67.3927 81.3392C70.6404 81.3392 72.9495 80.8926 75.2825 78.9814C76.9672 77.6013 78.6754 75.2445 78.6754 73.1888C78.6754 71.6083 79.1798 69.4744 77.9483 68.1784C76.3988 66.5477 73.1699 66.0971 71.0279 65.2198C68.5094 64.1882 64.955 67.3976 63.0573 68.2691C62.2565 68.6368 61.5491 69.4223 61.0781 70.0601C59.9717 71.5586 58.7856 72.8422 58.1834 74.5604C56.731 78.7046 55.0857 82.7938 55.4233 87.1998C55.5903 89.3799 56.2326 91.5931 57.7795 93.3778C58.4104 94.1058 58.8323 95.0158 59.6375 95.6223C60.5349 96.2984 61.7139 96.8055 62.6669 97.4474C63.5136 98.0177 64.5427 98.233 65.4673 98.6943C66.919 99.4186 68.4726 100.06 70.072 100.519C73.5161 101.51 76.8816 100.927 80.3718 100.927C85.418 100.927 90.5777 100.921 95.4648 99.8166C98.3088 99.1741 100.959 99.2951 103.934 99.2951C106.376 99.2951 108.739 98.9233 111.15 98.887C114.57 98.8356 117.111 100.162 120.023 101.415C121.059 101.861 122.23 101.951 123.281 102.367C124.311 102.775 125.329 103.21 126.391 103.557C129.342 104.524 132.296 105.399 135.331 106.187C141.725 107.849 148.59 107.865 155.204 107.865C156.948 107.865 158.976 107.704 159.391 106.131C159.986 103.875 160.347 101.842 160.347 99.4765C160.347 97.398 160.217 95.3407 158.61 93.6499C156.731 91.6716 155.196 89.9732 152.538 88.7302C150.961 87.9924 149.059 87.5359 147.287 87.3019C145.716 87.0943 144.07 87.1947 142.521 86.8938C142.012 86.7949 141.77 86.6497 141.175 86.6444C138.402 86.6195 135.627 86.6444 132.854 86.6444C130.927 86.6444 129.504 86.5769 127.751 87.1545C125.573 87.8721 122.945 89.1607 121.275 90.5666C119.893 91.7304 117.845 92.4577 116.59 93.7066C113.974 96.3097 111.5 100.088 112.901 103.625C114.315 107.197 120.6 109.57 124.372 111.158" stroke="#D8D8D8" stroke-width="4" stroke-linecap="round" shape-rendering="crispEdges"/>
</g>
<path d="M22.4225 104.032C22.4225 112.379 24.3591 120.614 24.3591 128.928M17 108.807C20.5184 107.258 24.3812 105.905 28.3615 105.756C31.5911 105.635 32.4929 105.733 32.4929 108.788C32.4929 109.65 32.7366 110.798 32.4068 111.611C31.7076 113.335 27.5716 114.757 25.8224 115.21C24.111 115.655 22.5777 115.789 20.8732 116.044C18.9037 116.339 23.1564 116.104 23.6706 116.044C27.2861 115.627 29.8363 116.14 32.8157 117.977C35.2243 119.461 35.6969 120.734 36.3446 123.301C37.1098 126.333 31.2767 128.921 29.007 129.61C25.1821 130.771 21.2123 131.557 17.3873 132.679M38.6901 109.489C39.154 113.777 41.014 118.047 41.014 122.41C41.014 124.482 41.7887 128.587 41.7887 128.587M35.5915 111.876C36.961 110.804 43.7373 108.229 44.586 110.247C45.4735 112.356 45.7738 114.735 44.4139 116.65C43.9273 117.336 42.2823 117.968 41.4013 118.015C39.3934 118.122 43.7923 120.873 44.4139 121.273C46.9813 122.925 49.9523 125.325 51.8591 127.564M54.5703 105.737C55.2966 105.817 55.4352 110.521 55.5386 111.213C55.9762 114.141 55.7323 117.185 55.7323 120.137C55.7323 122.728 55.345 130.497 55.345 127.905M52.6337 105.055C53.5798 105.159 55.6499 107.985 56.3348 108.636C58.9187 111.093 61.5155 113.621 63.0914 116.726C63.8698 118.26 65.2681 119.436 65.8027 121.084C66.1017 122.006 66.7488 123.016 67.352 123.812M56.1196 118.697H64.6407M67.103 113.531C68.2998 113.531 69.3134 114.201 70.3988 114.201C73.189 114.201 75.9259 114.536 78.7099 114.536C81.0315 114.536 82.5317 114.068 84.4894 113.196C85.4123 112.785 86.6946 111.617 87.7374 111.522C88.9735 111.408 89.6567 110.115 90.8422 109.773C93.6822 108.953 96.1724 107.688 98.9144 106.833M75.5622 115.586C76.3676 116.453 76.8809 118.729 77.3051 119.849C77.83 121.236 78.2017 122.375 78.5747 123.771C79.4185 126.929 79.4354 130.397 79.4354 133.661M64.7171 138.095C64.7171 136.084 69.4189 135.482 71.0865 134.836C71.8543 134.538 72.5022 133.93 73.3243 133.737C74.7765 133.396 76.6006 133.661 78.1013 133.661C80.7809 133.661 83.1852 134.358 85.8047 134.665C87.7407 134.893 89.8838 134.684 91.8297 134.684M90.1663 119.001C90.3766 122.52 92.8776 125.682 92.8776 129.232M90.1663 119.683C90.398 121.417 93.0813 123.437 94.2117 124.875C94.8364 125.669 95.7113 127.024 96.6002 127.546C97.5216 128.087 98.2008 128.832 98.9026 129.573C99.4188 130.119 100.624 131.78 100.624 131.07C100.624 129.623 101.011 128.184 101.011 126.694C101.011 124.154 101.71 121.68 101.786 119.153C101.857 116.765 101.485 114.435 102.388 112.162C103.616 109.075 103.516 105.644 104.885 102.632M107.067 120.582C107.538 121.102 107.725 122.127 107.958 122.743C108.463 124.078 108.857 125.382 109.265 126.732C109.998 129.163 110.669 131.635 111.023 134.13M106.187 120.002C106.584 119.963 106.751 119.659 106.981 119.41C107.637 118.699 108.885 118.203 109.753 117.722C111.053 117.002 112.597 116.158 114.198 116.131C114.832 116.12 116.095 115.891 116.469 116.518C116.87 117.188 116.958 117.91 116.958 118.647C116.958 120.098 115.661 121.558 114.638 122.604C113.697 123.564 112.64 124.255 111.407 124.722M111.407 124.722C110.856 124.93 110.27 125.094 109.643 125.216C108.857 125.37 110.103 124.999 111.407 124.722ZM111.407 124.722C112.103 124.574 112.816 124.453 113.246 124.453C115.092 124.453 117.469 124.126 119.278 124.646C121.723 125.35 122.453 126.805 122.453 128.904C122.453 130.239 122.479 131.572 121.403 132.625C120.107 133.893 118.847 135.295 117.629 136.635C116.395 137.993 115.299 139.461 113.893 140.699C112.759 141.697 111.433 142.544 110.254 143.506C109.438 144.171 108.458 144.837 107.604 145.452C105.86 146.708 104.131 148.362 102.89 150M122.453 110.712C123.437 110.82 124.761 112.25 125.433 112.841C126.177 113.496 126.726 114.374 127.338 115.12C127.881 115.784 128.62 116.368 129.047 117.098C129.898 118.556 130.146 120.005 130.806 121.507C131.381 122.817 131.724 124.179 132.068 125.542L132.076 125.571C132.743 128.215 133.567 131.025 133.052 133.743C133.022 133.904 132.884 134.515 132.818 134.786M132.818 134.786C132.793 134.889 132.778 134.943 132.784 134.904C132.789 134.864 132.801 134.825 132.818 134.786ZM132.818 134.786C133.099 134.143 134.842 133.568 135.373 133.356C136.135 133.051 136.861 132.582 137.717 132.582H142.895M145.533 118.26C146.313 118.336 146.576 121.048 146.742 121.647C147.253 123.498 147.578 125.334 147.95 127.205C148.212 128.519 148.61 129.911 148.61 131.248C148.61 131.87 148.73 132.472 148.817 133.087C148.824 133.13 148.83 132.128 148.83 131.807M145.093 118.84C145.467 118.601 145.889 118.675 146.326 118.625C147.247 118.521 148.161 118.169 149.025 117.883C149.599 117.694 150.187 117.602 150.783 117.486C151.097 117.424 151.139 117.167 151.37 117.109C152.535 116.816 153.649 116.428 154.764 115.937M147.511 123.292C149.36 123.292 150.91 122.518 152.786 122.518M149.049 133.356C150.409 133.356 151.61 132.603 152.847 132.184C155.234 131.375 157.593 131.464 160.04 131.033M164.875 113.228C164.875 115.809 165.868 118.59 166.304 121.152C166.6 122.889 167.009 124.607 167.293 126.345C167.403 127.016 167.405 128.228 167.953 128.711M164.436 114.389C167.669 116.62 170.402 119.431 172.569 122.496C173.977 124.488 175.206 126.579 176.598 128.582C177.154 129.381 177.436 127.758 177.514 127.399C178.4 123.328 178.581 119.146 179.261 115.045C179.507 113.556 179.383 112.021 179.383 110.518M186.636 109.744C187.19 109.805 186.856 114.07 186.856 114.496C186.856 116.387 186.289 118.349 186.197 120.131C186.102 121.964 185.156 123.691 185.098 125.528C185.061 126.678 184.696 127.963 184.438 129.098M185.537 109.744C187.233 109.744 189.301 110.34 190.898 110.808C193.216 111.489 195.664 112.95 197.15 114.668C197.792 115.41 198.175 116.273 198.897 117.012C199.747 117.884 200.652 118.77 201.241 119.808C201.944 121.046 202.557 122.099 202.902 123.464C203.734 126.762 199.08 128.761 196.137 129.635C193.271 130.487 190.19 130.878 187.296 131.657C186.338 131.914 185.529 132.151 184.524 132.302C183.529 132.451 182.076 132.533 181.361 133.162" stroke="black" stroke-width="3" stroke-linecap="round"/>
<defs>
<filter id="filter0_d_9_434" x="0.0364685" y="0.494263" width="223.921" height="138.168" filterUnits="userSpaceOnUse" color-interpolation-filters="sRGB">
<feFlood flood-opacity="0" result="BackgroundImageFix"/>
<feColorMatrix in="SourceAlpha" type="matrix" values="0 0 0 0 0 0 0 0 0 0 0 0 0 0 0 0 0 0 127 0" result="hardAlpha"/>
<feOffset dx="2" dy="2"/>
<feGaussianBlur stdDeviation="5"/>
<feComposite in2="hardAlpha" operator="out"/>
<feColorMatrix type="matrix" values="0 0 0 0 0.941176 0 0 0 0 0.670588 0 0 0 0 0.8 0 0 0 0.32 0"/>
<feBlend mode="normal" in2="BackgroundImageFix" result="effect1_dropShadow_9_434"/>
<feBlend mode="normal" in="SourceGraphic" in2="effect1_dropShadow_9_434" result="shape"/>
</filter>
<filter id="filter1_d_9_434" x="13.5421" y="13.9994" width="196.915" height="111.159" filterUnits="userSpaceOnUse" color-interpolation-filters="sRGB">
<feFlood flood-opacity="0" result="BackgroundImageFix"/>
<feColorMatrix in="SourceAlpha" type="matrix" values="0 0 0 0 0 0 0 0 0 0 0 0 0 0 0 0 0 0 127 0" result="hardAlpha"/>
<feOffset dx="2" dy="2"/>
<feGaussianBlur stdDeviation="5"/>
<feComposite in2="hardAlpha" operator="out"/>
<feColorMatrix type="matrix" values="0 0 0 0 0.941176 0 0 0 0 0.670588 0 0 0 0 0.8 0 0 0 0.32 0"/>
<feBlend mode="normal" in2="BackgroundImageFix" result="effect1_dropShadow_9_434"/>
<feBlend mode="normal" in="SourceGraphic" in2="effect1_dropShadow_9_434" result="shape"/>
</filter>
</defs>
</svg>
